<svg width="30" height="30" viewBox="0 0 30 30" fill="none" xmlns="http://www.w3.org/2000/svg">
<g clip-path="url(#clip0_133_287)">
<path d="M14.9986 29.7717C23.1667 29.7717 29.7883 23.1501 29.7883 14.982C29.7883 6.81393 23.1667 0.192383 14.9986 0.192383C6.83053 0.192383 0.208984 6.81393 0.208984 14.982C0.208984 23.1501 6.83053 29.7717 14.9986 29.7717Z" fill="#4B4B4D"/>
<path d="M20.2342 10.9795C20.8687 10.9795 21.3831 10.4651 21.3831 9.83059C21.3831 9.19604 20.8687 8.68164 20.2342 8.68164C19.5996 8.68164 19.0852 9.19604 19.0852 9.83059C19.0852 10.4651 19.5996 10.9795 20.2342 10.9795Z" fill="white"/>
<path d="M15.1261 10.1553C12.4648 10.1553 10.2996 12.3204 10.2996 14.9817C10.2996 17.643 12.4648 19.8081 15.1261 19.8081C17.7873 19.8081 19.9524 17.643 19.9524 14.9817C19.9524 12.3204 17.7873 10.1553 15.1261 10.1553ZM15.1261 18.0734C13.4213 18.0734 12.0343 16.6865 12.0343 14.9817C12.0343 13.2769 13.4213 11.8901 15.1261 11.8901C16.8308 11.8901 18.2176 13.2769 18.2176 14.9817C18.2176 16.6865 16.8308 18.0734 15.1261 18.0734Z" fill="white"/>
<path d="M18.9577 24.7808H11.1333C7.88728 24.7808 5.24658 22.1401 5.24658 18.8941V11.0693C5.24658 7.82327 7.88727 5.18262 11.1333 5.18262H18.9577C22.2037 5.18262 24.8447 7.82327 24.8447 11.0693V18.8941C24.8447 22.1401 22.2037 24.7808 18.9577 24.7808ZM11.1333 7.02637C8.90385 7.02637 7.09033 8.83988 7.09033 11.0693V18.8941C7.09033 21.1235 8.90385 22.937 11.1333 22.937H18.9577C21.1871 22.937 23.001 21.1235 23.001 18.8941V11.0693C23.001 8.83988 21.1871 7.02637 18.9577 7.02637H11.1333Z" fill="white"/>
</g>
<defs>
<clipPath id="clip0_133_287">
<rect width="30" height="30" fill="white"/>
</clipPath>
</defs>
</svg>
