<svg width="30" height="30" viewBox="0 0 30 30" fill="none" xmlns="http://www.w3.org/2000/svg">
<g clip-path="url(#clip0_133_294)">
<path d="M25.4063 25.3893C31.1544 19.6412 31.1544 10.3217 25.4063 4.57363C19.6583 -1.17445 10.3388 -1.17446 4.59068 4.57362C-1.1574 10.3217 -1.15739 19.6412 4.59069 25.3893C10.3388 31.1374 19.6583 31.1374 25.4063 25.3893Z" fill="#4B4B4D"/>
<path d="M14.6982 15.8166C14.6884 15.7461 14.6786 15.6757 14.6687 15.605C14.6971 15.1747 14.6343 14.7312 14.8548 14.3291C14.9243 14.389 14.9938 14.4489 15.0633 14.5088C15.5239 14.8895 15.1374 15.3856 15.2412 15.8149C15.182 15.8182 15.1227 15.8201 15.0635 15.8207C14.9417 15.8193 14.8199 15.8179 14.6982 15.8166Z" fill="#A2B1CE"/>
<path d="M15.3264 14.7344C15.2299 14.9745 15.1334 15.2147 15.0369 15.4549C14.9076 15.2016 14.2073 14.9492 15.0359 14.6943C15.1327 14.7077 15.2295 14.721 15.3264 14.7344Z" fill="#E8ECF3"/>
<path d="M14.7173 14.3252C14.839 14.3266 14.9608 14.328 15.0826 14.3294C15.1421 14.5164 15.2018 14.7033 15.2614 14.8903C15.0626 15.0217 15.2527 15.1395 15.2746 15.2631C15.2101 15.3278 15.1457 15.3926 15.0813 15.4573C14.9266 15.533 14.8967 15.6722 14.8943 15.8253C14.5225 15.3622 14.7826 14.8245 14.7173 14.3252Z" fill="#A7B5D1"/>
<path fill-rule="evenodd" clip-rule="evenodd" d="M12.5594 15.1487V24.1638C12.5594 24.2935 12.6645 24.3986 12.7942 24.3986H16.142C16.2716 24.3986 16.3768 24.2935 16.3768 24.1638V15.0019H18.8038C18.9258 15.0019 19.0275 14.9084 19.0378 14.7868L19.2712 12.0263C19.2828 11.8893 19.1747 11.7717 19.0372 11.7717H16.3768V9.81321C16.3768 9.35419 16.7489 8.98209 17.2079 8.98209H19.0784C19.2081 8.98209 19.3133 8.87695 19.3133 8.74725V5.98676C19.3133 5.8571 19.2081 5.75195 19.0784 5.75195H15.9177C14.0629 5.75195 12.5594 7.25555 12.5594 9.11035V11.7717H10.8854C10.7557 11.7717 10.6506 11.8769 10.6506 12.0066V14.7671C10.6506 14.8967 10.7557 15.0019 10.8854 15.0019H12.5594V15.1487H12.5594Z" fill="white"/>
</g>
<defs>
<clipPath id="clip0_133_294">
<rect width="30" height="30" fill="white"/>
</clipPath>
</defs>
</svg>
