<svg width="30" height="30" viewBox="0 0 30 30" fill="none" xmlns="http://www.w3.org/2000/svg">
<g clip-path="url(#clip0_133_300)">
<path d="M25.4061 25.3893C31.1542 19.6412 31.1542 10.3217 25.4061 4.57361C19.658 -1.17448 10.3385 -1.17448 4.59045 4.57361C-1.15764 10.3217 -1.15764 19.6412 4.59045 25.3893C10.3385 31.1374 19.658 31.1374 25.4061 25.3893Z" fill="#4B4B4D"/>
<path d="M24.3119 12.6225C24.3119 10.4163 22.5235 8.62793 20.3174 8.62793H9.95694C7.75082 8.62793 5.9624 10.4163 5.9624 12.6225V17.478C5.9624 19.6842 7.75082 21.4726 9.95694 21.4726H20.3174C22.5235 21.4726 24.3119 19.6842 24.3119 17.478V12.6225ZM17.7752 15.2949L13.6434 17.5611C13.4637 17.6583 13.3022 17.5282 13.3022 17.324V12.6723C13.3022 12.4655 13.4688 12.3357 13.6485 12.4381L17.8087 14.8235C17.9926 14.9282 17.9613 15.1942 17.7752 15.2949Z" fill="white"/>
</g>
<defs>
<clipPath id="clip0_133_300">
<rect width="30" height="30" fill="white"/>
</clipPath>
</defs>
</svg>
